PathFileType	4	(X/Y/Z)	KinectSkeleton.trc																																																	
DataRate	CameraRate	NumFrames	NumMarkers	Units	OrigDataRate	OrigDataStartFrame	OrigNumFrames																																													
60	60	26	17	mm	60	295	300																																													
Frame#	Time	Neck			ShoulderMid			R.Shoulder			L.Shoulder			R.Elbow			L.Elbow			R.Wrist			L.Wrist			HipCenter			R.Hip			L.Hip			R.Knee			L.Knee			R.Ankle			L.Ankle			R.Foot			L.Foot		
		X1	Y1	Z1	X2	Y2	Z2	X3	Y3	Z3	X4	Y4	Z4	X5	Y5	Z5	X6	Y6	Z6	X7	Y7	Z7	X8	Y8	Z8	X9	Y9	Z9	X10	Y10	Z10	X11	Y11	Z11	X12	Y12	Z12	X13	Y13	Z13	X14	Y14	Z14	X15	Y15	Z15	X16	Y16	Z16	X17	Y17	Z17
																																																				
295	15.598	-1312.422	1055.196	137.988	-1312.422	1055.196	137.988	-1329.954	980.149	304.36	-1324.019	959.297	-30.354	-1440.839	728.956	401.126	-1426.721	696.759	-76.883	-1363.373	498.942	392.916	-1364.573	471.392	-23.43	-1396.672	509.003	187.498	-1396.454	517.963	272.038	-1396.913	499.067	93.745	-1338.826	116.3	351.495	-1458.496	89.827	85.548	-1489.142	-251.65	394.131	-1546.906	-295.714	79.943	-1368.243	-377.279	431.024	-1379.919	-392.197	61.881
296	15.644	-1321.274	1054.9	142.443	-1321.274	1054.9	142.443	-1335.184	980.842	309.008	-1335.598	963.055	-27.325	-1450.507	731.599	404.689	-1434.865	699.939	-76.123	-1383.245	498.69	395.828	-1370.224	475.24	-23.979	-1403.776	509.185	188.575	-1404.01	517.56	273.084	-1403.516	499.897	94.857	-1379.591	112.717	351.246	-1460.332	90.424	86.171	-1516.902	-259.262	398.536	-1546.84	-295.106	79.937	-1395.687	-383.234	438.916	-1380.466	-392.58	63.87
297	15.691	-1326.566	1053.844	147.989	-1326.566	1053.844	147.989	-1338.531	980.482	314.886	-1338.31	963.38	-22.389	-1455.243	730.258	406.287	-1446.818	703.187	-67.129	-1387.123	497.509	399.598	-1378.025	478.617	-19.901	-1410.388	507.625	191.507	-1411.536	515.326	276.079	-1409.116	499.086	97.72	-1395.799	109.843	353.297	-1462.365	89.137	87.678	-1524.405	-265.477	398.859	-1545.111	-297.214	79.746	-1398.047	-383.509	441.271	-1377.427	-392.55	64.321
298	15.737	-1331.879	1055.746	151.303	-1331.879	1055.746	151.303	-1339.239	982.806	319.08	-1344.242	963.851	-19.113	-1458.206	731.989	409.019	-1447.765	700.435	-62.857	-1395.112	496.912	406.353	-1376.755	475.912	-14.65	-1417.472	507.806	197.468	-1420.43	516.185	282.216	-1414.192	498.515	103.487	-1410.27	108.299	354.941	-1460.227	86.391	90.503	-1530.436	-271.621	396.942	-1545.413	-300.704	79.646	-1398.82	-380.427	449.349	-1375.295	-393.136	65.142
299	15.782	-1339.266	1055.714	163.099	-1339.266	1055.714	163.099	-1346.201	983.483	330.942	-1348.71	965.185	-7.892	-1466.409	732.417	418.228	-1458.443	704.127	-50.078	-1404.349	497.146	421.636	-1384.511	480.392	-2.952	-1427.763	508.348	210.538	-1431.641	517.251	295.17	-1423.463	498.475	116.684	-1427.476	107.64	357.354	-1458.157	85.558	98.47	-1534.587	-276.427	395.704	-1547.745	-300.227	81.985	-1397.744	-379.169	446.772	-1377.287	-391.992	67.986
300	15.828	-1343.001	1055.37	169.059	-1343.001	1055.37	169.059	-1349.485	981.896	336.988	-1360.362	958.475	0.995	-1472.167	732.187	425.529	-1457.885	692.467	-41.874	-1409.689	496.793	426.279	-1387.898	467.203	5.018	-1431.078	507	214.375	-1432.936	514.637	299.271	-1429.019	498.531	120.229	-1430.976	104.219	358.48	-1455.867	84.839	98.771	-1538.373	-280.142	396.584	-1549.499	-300.273	81.096	-1398.76	-379.686	447.007	-1379.076	-392.832	69.934
301	15.874	-1348.894	1055.41	180.456	-1348.894	1055.41	180.456	-1356.242	980.54	347.612	-1365.262	959.275	11.857	-1484.763	734.373	437.406	-1461.4	694.207	-38.551	-1420.232	499.632	436.929	-1394.484	467.831	6.971	-1439.814	507.477	220.369	-1441.169	514.206	305.318	-1438.311	500.014	126.164	-1435.181	103.71	362.544	-1454.98	86.054	102.773	-1534.68	-283.027	396.139	-1547.367	-299.04	81.916	-1395.923	-382.277	449.185	-1377.572	-392.206	67.92
302	15.922	-1348.597	1054.222	186.126	-1348.597	1054.222	186.126	-1357.295	980.115	353.663	-1367.7	957.672	17.619	-1485.374	734.326	446.166	-1467.877	693.344	-30.626	-1424.234	498.605	436.083	-1404.484	466.042	16.739	-1443.115	506.442	224.622	-1443.889	512.854	309.7	-1442.257	499.331	130.273	-1433.193	101.842	365.97	-1452.089	84.695	106.542	-1537.414	-284.203	398.659	-1550.673	-299.266	84.564	-1395.778	-382.197	446.906	-1379.583	-390.033	67.759
303	15.969	-1349.604	1051.905	192.557	-1349.604	1051.905	192.557	-1358.506	975.801	358.965	-1367.636	959.704	22.326	-1491.193	731.72	447.931	-1471.852	698.466	-31.15	-1432.583	495.812	436.814	-1405.2	472.619	16.711	-1447.732	505.13	225.69	-1447.627	510.492	310.706	-1447.848	499.183	131.411	-1432.794	100.615	369.299	-1447.582	85.131	107.246	-1536.559	-285.164	398.392	-1548.546	-297.537	85.174	-1395.769	-382.366	449.553	-1379.997	-391.917	66.369
304	16.013	-1351.418	1044.839	201.771	-1351.418	1044.839	201.771	-1363.185	964.077	365.869	-1365.746	959.366	28.384	-1498.836	722.03	455.539	-1470.277	699.768	-31.477	-1441.024	486.449	437.554	-1411.223	471.847	16.047	-1457.873	499.556	228.597	-1456.155	504.353	313.596	-1459.779	494.236	134.338	-1416.928	97.102	377.816	-1427.283	81.978	104.793	-1537.135	-284.106	401.103	-1549.783	-294.253	83.936	-1397.37	-382.447	452.647	-1381.581	-389.529	67.479
305	16.058	-1350.96	1039.645	205.534	-1350.96	1039.645	205.534	-1365.39	956.763	369.261	-1372.604	947.776	34.694	-1504.027	716.165	460.287	-1482.357	689.205	-23.164	-1446.014	480.018	443.35	-1417.826	461.594	21.228	-1464.353	494.821	228.978	-1463.199	498.562	314.221	-1465.633	490.673	134.446	-1407.722	92.831	381.72	-1417.699	79.016	105.046	-1534.443	-287.4	400.836	-1553.571	-293.473	83.708	-1393.72	-384.854	452.783	-1384.435	-387.944	67.286
306	16.106	-1349.468	1032.503	207.738	-1349.468	1032.503	207.738	-1364.641	948.716	371.501	-1369.45	942.34	35.358	-1508.529	710.77	464.105	-1483.44	685.142	-24.579	-1449.022	474.147	448.721	-1423.629	456.132	22.967	-1471.63	487.568	231.859	-1470.74	491.835	317.332	-1472.616	482.836	137.072	-1398.069	88.135	388.139	-1405.6	73.208	100.258	-1536.453	-289.615	398.347	-1553.213	-296.338	84.741	-1395.006	-383.964	455.607	-1382.883	-389.115	64.627
307	16.151	-1345.594	1004.997	211.989	-1345.594	1004.997	211.989	-1358.437	924.434	375.669	-1370.039	921.708	38.9	-1514.722	698.741	472.716	-1496.721	674.795	-29.264	-1465.302	461.675	454.054	-1432.759	449.061	20.523	-1483.762	467.767	236.002	-1481.562	471.711	320.908	-1486.202	463.393	141.844	-1371.443	81.451	402.062	-1380.333	66.349	91.531	-1535.044	-283.348	402.037	-1542.407	-294.434	81.554	-1397.895	-384.632	454.004	-1376.667	-392.325	59.694
308	16.198	-1344.54	990.486	216.114	-1344.54	990.486	216.114	-1355.581	909.788	379.513	-1366.748	911.244	41.548	-1513.407	687.358	481.068	-1492.956	666.845	-35.407	-1469.916	449.556	458.887	-1438.278	440.997	23.518	-1486.458	454.435	240.113	-1483.869	458.496	324.961	-1489.328	449.931	146.02	-1357.948	74.596	412.208	-1363.486	60.586	84.46	-1522.357	-289.568	405.835	-1539.455	-293.528	80.277	-1385.039	-390.434	457.873	-1375.948	-395.18	59.646
309	16.244	-1337.009	950.806	225.58	-1337.009	950.806	225.58	-1352.997	869.858	387.483	-1357.57	870.969	52.167	-1516.311	657.355	496.963	-1511.961	649.422	-36.214	-1471.716	421.854	467.474	-1456.009	425.274	22.923	-1496.173	423.047	245.936	-1494.688	426.653	330.386	-1497.819	419.048	152.284	-1333.552	60.236	424.41	-1335.049	50.919	66.158	-1517.454	-291.729	406.455	-1532.528	-289.043	79.463	-1382.132	-392.652	460.397	-1376.885	-401.127	61.726
310	16.291	-1334.321	930.392	226.937	-1334.321	930.392	226.937	-1349.39	852.323	389.934	-1354.797	853.135	52.68	-1518.857	645.212	500.575	-1513.223	634.204	-35.3	-1474.073	409.543	472.261	-1457.759	408.965	20.28	-1498.794	403.988	248.088	-1498.458	408.039	332.552	-1499.167	399.495	154.422	-1319.183	51.749	432.888	-1319.849	43.168	52.493	-1515.377	-293.194	407.957	-1529.252	-289.382	72.136	-1379.836	-395.478	458.84	-1375.978	-404.9	55.301
311	16.337	-1329.229	907.07	227.094	-1329.229	907.07	227.094	-1344.635	833.154	389.927	-1350.344	832.424	54.048	-1506.612	629.237	510.889	-1516.799	623.741	-36.287	-1459.819	396.356	480.122	-1466.513	399.493	19.647	-1500.508	388.324	248.511	-1498.28	391.629	332.266	-1502.98	384.66	155.63	-1306.956	46.897	436.524	-1308.608	40.003	55.108	-1510.035	-289.815	407.657	-1522.021	-286.013	75.076	-1381.083	-397.473	459.398	-1377.335	-409.109	54.784
312	16.384	-1326.794	860.522	231.614	-1326.794	860.522	231.614	-1340.266	787.781	394.022	-1348.155	787.923	58.754	-1507.713	593.098	519.875	-1519.675	588.789	-39.72	-1459.402	362.568	482.128	-1475.776	365.716	21.928	-1499.356	344.62	254.954	-1500.38	349.32	338.323	-1498.221	339.407	162.501	-1278.004	29.229	452.566	-1285.149	13.791	44.639	-1501.321	-290.833	409.273	-1521.22	-293.198	76.577	-1376.12	-403.032	458.065	-1373.314	-410.848	54.579
313	16.446	-1322.596	818.458	232.584	-1322.596	818.458	232.584	-1338.916	743.784	392.969	-1346.648	744.951	61.711	-1506.013	557.67	527.394	-1521.741	553.971	-40.918	-1466.537	327.255	489.268	-1473.086	334.951	25.204	-1496.698	308.485	255.173	-1496.243	312.436	337.996	-1497.202	304.104	163.325	-1256.624	10.735	457.166	-1259.307	2.301	39.576	-1495.036	-293.493	405.951	-1511.892	-286.343	81.465	-1374.26	-408.885	454.027	-1378.485	-416.739	51.599
314	16.49	-1321.848	803.733	234.839	-1321.848	803.733	234.839	-1335.278	731.234	395.427	-1342.421	730.967	63.984	-1501.83	546.262	530.529	-1519.005	542.789	-39.278	-1469.767	316.757	484.615	-1474.699	322.263	22.586	-1494.201	294.173	254.259	-1493.715	297.472	336.893	-1494.74	290.514	162.621	-1250.42	1.812	460.106	-1247.772	-0.308	33.911	-1498.135	-293.297	407.499	-1505.49	-282.078	81.606	-1376.865	-406.159	458.595	-1378.283	-418.038	52.645
315	16.538	-1319.882	790.285	236.561	-1319.882	790.285	236.561	-1334.707	718.338	397.283	-1342.707	717.761	65.553	-1499.298	535.153	537.433	-1518.447	529.39	-39.168	-1464.766	306.428	488.876	-1471.829	309.139	22.429	-1488.727	280.027	255.61	-1490.368	283.886	338.247	-1486.906	275.747	163.969	-1242.805	-6.919	465.13	-1238.499	-10.988	28.395	-1497.81	-294.888	406.638	-1503.634	-284.662	83.58	-1375.859	-406.614	458.899	-1375.963	-420.835	57.144
316	16.583	-1315.986	769.921	236.178	-1315.986	769.921	236.178	-1331.052	697.126	396.847	-1341.227	692.818	67.013	-1502.303	520.179	537.3	-1515.115	504.884	-41.851	-1466.647	290.828	492.079	-1459.451	286.819	20.427	-1486.461	261.187	256.233	-1486.926	264.45	338.949	-1485.946	257.568	164.503	-1231.404	-17.64	470.254	-1224.97	-16.888	26.583	-1494.625	-297.357	407.09	-1498.049	-282.325	84.465	-1372.419	-409.199	458.775	-1376.953	-423.321	52.355
317	16.63	-1313.575	763.055	235.254	-1313.575	763.055	235.254	-1326.58	691.83	396.055	-1338.054	687.622	66.119	-1499.556	518.608	537.811	-1514.878	502.48	-41.273	-1468.019	289.555	490.694	-1459.773	284.759	20.836	-1486.6	256.806	256.247	-1486.899	260.034	338.789	-1486.268	253.226	164.712	-1227.321	-16.068	472.214	-1224.352	-17.745	24.22	-1489.575	-295.627	409.446	-1496.777	-281.66	86.506	-1370.562	-410.146	461.475	-1377.355	-422.977	51.994
318	16.676	-1313.81	758.619	234.841	-1313.81	758.619	234.841	-1325.651	688.632	395.511	-1335.805	683.469	66.052	-1497.802	514.908	536.11	-1514.965	501.555	-41.024	-1469.785	286.141	488.606	-1462.063	284.314	22.28	-1486.235	253.549	256.322	-1486.244	256.787	338.638	-1486.224	249.958	165.037	-1225.831	-16.922	472.062	-1223.741	-18.789	24.477	-1488.464	-294.779	409.883	-1496.354	-280.91	87.035	-1372.024	-411.062	462.245	-1378.902	-423.351	53.191
319	16.722	-1309.746	749.56	235.681	-1309.746	749.56	235.681	-1325.649	681.825	397.156	-1333.887	674.468	66.943	-1496.479	508.624	540.062	-1511.658	491.939	-41.48	-1469.655	281.719	483.641	-1457.426	274.787	21.104	-1483.477	244.922	259.538	-1485.376	249.101	341.799	-1481.37	240.287	168.313	-1219.393	-21.175	471.323	-1215.698	-22.715	22.824	-1487.724	-292.913	406.211	-1494.382	-277.794	87.973	-1377.204	-411.883	465.04	-1383.703	-425.267	52.758
320	16.766	-1308.27	748.02	235.715	-1308.27	748.02	235.715	-1324.446	680.128	397.042	-1332.635	673.035	67.038	-1495.704	507.31	539.69	-1510.497	490.789	-41.447	-1470.168	280.391	483.095	-1456.655	273.71	21.4	-1483.44	244.218	259.446	-1485.312	248.387	341.677	-1481.363	239.595	168.254	-1219.447	-21.934	470.883	-1216.261	-23.528	22.362	-1487.516	-293.814	406.15	-1495.146	-278.102	87.774	-1375.935	-411.852	464.659	-1384.163	-425.436	53.316
